# xmcd
#
# Track frame offsets: 
#        150
#        15774
#        37691
#        56769
#        73261
#        92052
#        106510
#        119088
#        134925
#        158268
#        170832
#        185312
#        203017
#        220791
#        236626
#        249737
#        262608
#        287906
#        306740
#        321393
#
# Disc length: 4444 seconds
#
# Revision: 0
# Processed by: cddbd v1.5.2PL0 Copyright (c) Steve Scherf et al.
# Submitted via: ExactAudioCopy v0.99pb4
#
DISCID=21115a14
DTITLE=Various Artist - 1000x Soul CD4
DYEAR=2008
DGENRE=Soul
TTITLE0=James Morrison - Undiscovered
TTITLE1=Angie Stone and Betty Wright - Baby
TTITLE2=Diana Ross - Missing You
TTITLE3=Otis Redding - I've Got Dreams To Remember (alternative versio
TTITLE3=n)
TTITLE4=James Hunter - Carina
TTITLE5=The Spinners - It's A Shame
TTITLE6=James Brown - I Got You (I Feel Good)
TTITLE7=The Staple Singers - Respect Yourself
TTITLE8=Rahsaan Patterson - Where You Are
TTITLE9=Dinah Washington - Mad About The Boy
TTITLE10=Marvin Gay - I Heard It Through
TTITLE11=Roy Ayers - Everybody Loves The Sunshine
TTITLE12=Anthony Hamilton - Do You Feel Me
TTITLE13=Eddy Kendricks - Keep On Truckin'
TTITLE14=Brenda Holloway - Every Little Bit Hurts
TTITLE15=The Emotions - So I Can Love You
TTITLE16=Lewis Taylor - Bittersweet
TTITLE17=The Floaters - Float On
TTITLE18=David Ruffin - Walk Away From Love
TTITLE19=Howard Tate - I Learned It All The Hard Way
EXTD=
EXTT0=
EXTT1=
EXTT2=
EXTT3=
EXTT4=
EXTT5=
EXTT6=
EXTT7=
EXTT8=
EXTT9=
EXTT10=
EXTT11=
EXTT12=
EXTT13=
EXTT14=
EXTT15=
EXTT16=
EXTT17=
EXTT18=
EXTT19=
PLAYORDER=
